<?xml version="1.0" encoding="iso-8859-1"?>
<!-- Generator: Adobe Illustrator 19.0.0, SVG Export Plug-In . SVG Version: 6.00 Build 0)  -->
<svg version="1.1" id="Layer_1" xmlns="http://www.w3.org/2000/svg" xmlns:xlink="http://www.w3.org/1999/xlink" x="0px" y="0px"
	 viewBox="0 0 472.651 472.651" style="enable-background:new 0 0 472.651 472.651;" xml:space="preserve" fill="#fff">
<g>
	<g>
		<rect x="226.48" width="19.692" height="39.385"/>
	</g>
</g>
<g>
	<g>
		<rect x="128.014" y="26.387" transform="matrix(0.8661 -0.4999 0.4999 0.8661 -4.5724 75.0905)" width="19.692" height="39.385"/>
	</g>
</g>
<g>
	<g>
		<rect x="55.936" y="98.465" transform="matrix(0.5 -0.866 0.866 0.5 -69.4359 116.0428)" width="19.692" height="39.385"/>
	</g>
</g>
<g>
	<g>
		<rect x="19.71" y="206.769" width="39.385" height="19.692"/>
	</g>
</g>
<g>
	<g>
		
			<rect x="46.087" y="305.229" transform="matrix(0.8661 -0.4999 0.4999 0.8661 -148.703 75.0822)" width="39.385" height="19.692"/>
	</g>
</g>
<g>
	<g>
		<rect x="397.014" y="295.35" transform="matrix(0.5 -0.866 0.866 0.5 -69.4111 509.856)" width="19.692" height="39.385"/>
	</g>
</g>
<g>
	<g>
		<rect x="413.556" y="206.769" width="39.385" height="19.692"/>
	</g>
</g>
<g>
	<g>
		
			<rect x="387.169" y="108.315" transform="matrix(0.8661 -0.4999 0.4999 0.8661 -4.5806 219.2236)" width="39.385" height="19.692"/>
	</g>
</g>
<g>
	<g>
		
			<rect x="315.092" y="36.233" transform="matrix(0.4999 -0.8661 0.8661 0.4999 127.5109 312.9908)" width="39.385" height="19.692"/>
	</g>
</g>
<g>
	<g>
		<path d="M152.452,393.85c1.121,6.493,2.075,13.049,2.815,19.692h162.081c0.789-6.572,1.811-13.135,3.045-19.692H152.452z"/>
	</g>
</g>
<g>
	<g>
		<path d="M156.941,433.234c0.341,6.337,0.615,12.695,0.615,19.134v20.283h157.538v-24.419c0-5.001,0.286-10,0.545-14.998H156.941z"
			/>
	</g>
</g>
<g>
	<g>
		<path d="M317.349,413.542c-0.787,6.56-1.368,13.123-1.708,19.692h28.993v-19.692H317.349z"/>
	</g>
</g>
<g>
	<g>
		<path d="M155.267,413.542h-27.249v19.692h28.923C156.584,426.6,155.993,420.049,155.267,413.542z"/>
	</g>
</g>
<g>
	<g>
		<path d="M324.781,374.157c-1.684,6.556-3.15,13.118-4.387,19.692h34.086v-19.692H324.781z"/>
	</g>
</g>
<g>
	<g>
		<path d="M148.41,374.157h-30.238v19.692h34.28C151.303,387.196,149.952,380.636,148.41,374.157z"/>
	</g>
</g>
<g>
	<g>
		<path d="M334.787,96.725c-31.705-28.454-72.665-41.354-115.298-36.726c-67.348,7.483-121.994,61.735-129.772,129.083
			c-4.037,34.462,3.545,68.037,22.055,96.885c16.826,26.401,29.025,56.215,36.638,88.19h176.371
			c8.006-31.158,20.86-62.09,38.855-92.521c13.292-22.647,20.382-48.541,20.382-74.831
			C384.018,164.762,366.098,124.688,334.787,96.725z M196.027,246.09l-13.922,13.922l-48.318-48.317l48.318-48.317l13.922,13.923
			l-34.394,34.394L196.027,246.09z M221.413,280.85l-18.501-6.731l47.798-131.577l18.5,6.731L221.413,280.85z M290.546,260.013
			l-13.922-13.922l34.394-34.395l-34.394-34.394l13.922-13.923l48.318,48.317L290.546,260.013z"/>
	</g>
</g>
</svg>
