<?xml version="1.0" encoding="utf-8"?>
<!-- Generator: Adobe Illustrator 15.0.0, SVG Export Plug-In  -->
<!DOCTYPE svg PUBLIC "-//W3C//DTD SVG 1.1//EN" "http://www.w3.org/Graphics/SVG/1.1/DTD/svg11.dtd" [
	<!ENTITY ns_flows "http://ns.adobe.com/Flows/1.0/">
]>
<svg version="1.1"
	 xmlns="http://www.w3.org/2000/svg" xmlns:xlink="http://www.w3.org/1999/xlink" xmlns:a="http://ns.adobe.com/AdobeSVGViewerExtensions/3.0/"
	 x="0px" y="0px" width="168px" height="111px" viewBox="-0.73 -0.886 168 111" enable-background="new -0.73 -0.886 168 111"
	 xml:space="preserve">
<defs>
</defs>
<g>
	<polygon fill="#009900" points="47.316,21.61 46.813,17.34 44.302,14.075 41.54,12.065 37.269,11.061 32.999,12.568 31.743,11.563 
		30.236,10.558 28.729,9.554 25.464,9.554 22.45,10.809 20.942,14.326 21.194,15.833 22.198,16.586 23.204,18.345 23.957,19.349 
		23.035,20.537 22.416,21.676 22.238,25.458 22.051,28.427 22.521,29.414 23.454,32.913 24.208,34.922 25.716,36.429 27.976,37.937 
		28.98,39.444 30.236,39.444 32.999,39.947 45.559,30.15 	"/>
	<g>
		<path d="M47.422,20.55c-0.534-4.534-1.326-6.669-5.167-9.464c-1.083-0.789-3.985-1.879-5.224-1.442
			c-1.266,0.447-2.531,0.894-3.797,1.34c-0.503,0.178-2.107-1.332-2.608-1.666c-1.601-1.068-3.478-1.967-5.477-1.135
			c-2.969,1.237-2.962,1.697-4.248,4.695c-1.292,3.015,1.475,5.863,3.055,7.97c0-1,0-2,0-3c-2.372,3.056-2.258,7.546-2.036,11.335
			c0.097,1.663,1.025,3.929,1.611,5.489c1.005,2.681,3.227,2.946,4.664,5.101c3.442,5.162,10.56-2.818,13.388-5.024
			c0.924-0.72,3.821-2.191,4.076-3.429c0.577-2.805,1.155-5.61,1.732-8.416c0.121-0.586-0.097-2.857-0.151-2.591
			c-0.47,2.283-0.939,4.565-1.409,6.847c-0.402,1.951-1.212,2.221-2.855,3.502c-3.02,2.355-7.801,8.179-11.768,7.456
			c-3.028-0.551-6.917-3.66-7.784-6.913c-0.288-1.08-0.576-2.16-0.864-3.24c-0.342-0.934-0.463-0.631-0.361,0.908
			c0.05-0.784,0.099-1.567,0.148-2.351c0.156-2.473,0.077-3.701,1.609-5.675c0.343-0.442,0.335-2.553,0-3
			c-0.412-0.549-2.643-3.046-2.752-3.702c-0.299-1.792-0.866,3.127,0.532-0.133c0.497-1.159,0.59-1.653,1.775-2.146
			c3.992-1.663,6.309-0.343,9.488,2.201c0.612,0.489,3.537-1.68,4.506-1.452c1.6,0.376,3.409,0.493,4.75,1.47
			c3.399,2.474,4.472,4.486,4.955,8.585C47.349,23.845,47.468,20.939,47.422,20.55z"/>
	</g>
</g>
<g>
	<linearGradient id="SVGID_1_" gradientUnits="userSpaceOnUse" x1="0.8486" y1="63.1802" x2="50.5811" y2="63.1802">
		<stop  offset="0" style="stop-color:#009900"/>
		<stop  offset="0.6907" style="stop-color:#178000"/>
		<stop  offset="1" style="stop-color:#237300"/>
	</linearGradient>
	<path fill="url(#SVGID_1_)" d="M28.729,44.216l-1.758-1.256l-3.518-1.508L20.692,40.7l-2.262-0.753l-4.521,0.502l-2.763,0.753
		L9.389,42.96l-0.251,2.512v3.516l0.251,1.006l1.005,1.256l1.005,2.26l1.005,1.256l1.256,1.256c0,0,0.502,1.508,1.506,2.01
		c1.006,0.502,2.764,2.512,2.764,2.512l1.507,1.005l2.261,1.005l5.275,2.01l1.758,1.255l0.251,1.257l-4.271,0.753l-2.009,0.251
		l-4.271,0.252h-5.274l-2.512-0.754l-1.507-2.512l-1.256-3.266L5.37,61.044l-2.262,0.754l-0.752,0.754l-1.508,4.019v2.009v2.764
		v2.763l1.508,0.754l1.758,0.502l1.256-0.753v-1.256l1.256-1.256l0.754-0.754l2.009-2.01l0.759,0.75c0,0-3.521,0.004-4.777,5.781
		l2.01,3.265l1.506,1.257l0.754,0.753l0.502-0.753l1.006-2.512l1.758-3.015l2.01-1.256l1.758-1.759l-0.242,1l0.744-0.492
		l-2.512,1.507l-1.256,2.005l-1.004,1.01v3.512l0.25,3.265l2.262,2.763l1.507-0.251l3.265-2.512l2.512-2.261l4.02-2.261l1.256-0.503
		l15.07-2.26l3.266-0.754h1.507l1.507-1.004l1.758-4.271l-7.283-8.791l-8.289-7.284l-2.512-7.285L28.729,44.216z"/>
	<g>
		<path d="M29.16,43.602c-1.754-1.254-3.451-1.998-5.445-2.853c-1.111-0.477-4.225-1.674-5.414-1.541
			c-2.61,0.289-9.313,0.218-9.698,4.073c-0.427,4.278-0.291,7.57,2.484,11.038c2.957,3.695,5.969,7.268,10.53,9.005
			c1.348,0.514,6.153,1.514,6.5,3.251c0.699-0.24,0.662-0.271-0.113-0.091c-0.859,0.151-1.718,0.303-2.577,0.454
			c-0.948,0.167-1.899,0.28-2.855,0.4c-2.527,0.315-5.134,0.243-7.675,0.243c-3.049,0-4.317-0.855-5.406-3.688
			c-1.047-2.723-1.033-2.706-3.859-3.554c-1.161-0.349-3.22,0.826-3.888,1.781c-2.354,3.361-1.641,8.083-1.641,11.913
			c0,0.37,0.159,0.609,0.487,0.773c1.574,0.787,4.013,2.206,5.396,0.229c0.635-0.906,0.531-1.773,1.504-2.746
			c0.361-0.361,0.723-0.723,1.084-1.085c1.175-1.176,0.483-1.153,1.003-0.639c0.147-0.408,0.295-0.816,0.442-1.224
			c-3.165,0.169-4.647,3.697-5.351,6.259c-0.546,1.989,3.216,4.837,4.401,6.021c0.332,0.331,0.901,0.373,1.187-0.055
			c0.992-1.488,1.482-3.222,2.387-4.772c1.07-1.835,2.997-2.858,4.518-4.38c-0.396-0.277-0.792-0.555-1.189-0.833
			c-0.081,0.334-0.161,0.667-0.242,1c-0.183,0.756,0.542,1.261,1.189,0.833c0.248-0.164,0.496-0.328,0.744-0.492
			c0.707-0.468-0.08-1.686-0.807-1.25c-2.125,1.274-5.197,3.295-5.197,6.039c0,4.078,0.084,6.005,2.687,9.185
			c0.168,0.205,0.445,0.296,0.703,0.253c3.408-0.567,4.868-3.618,7.697-5.209c3.891-2.188,6.511-2.825,10.931-3.488
			c4.034-0.604,8.051-1.13,12.024-2.047c3.834-0.886,3.991-1.931,5.587-5.809c0.102-0.248,0.035-0.545-0.131-0.746
			c-3.845-4.641-7.421-8.916-11.935-12.883c-3.222-2.832-3.71-3.545-5.099-7.574C33.019,46.203,31.959,45.654,29.16,43.602
			c-0.781-0.573-1.64,0.657-0.86,1.229c1.09,0.799,3.311,1.862,3.706,3.009c0.759,2.201,1.518,4.401,2.276,6.603
			c0.336,0.977,1.944,1.883,2.666,2.518c1.868,1.641,3.735,3.282,5.603,4.924c2.792,2.453,5.017,5.993,7.394,8.862
			c-0.525-0.635-0.813,1.146-1.132,1.922c-0.301,0.732-0.715,2.198-1.815,2.198c-1.635,0-3.057,0.533-4.666,0.774
			c-7.546,1.132-15.906,0.938-21.874,6.309c-2.379,2.142-6.71,6.208-7.153,0.423c-0.349-4.557,0.104-6.889,4.193-9.341
			c-0.269-0.417-0.538-0.833-0.807-1.25c-0.248,0.164-0.496,0.328-0.744,0.492c0.396,0.277,0.792,0.555,1.189,0.833
			c0.081-0.334,0.161-0.667,0.242-1c0.157-0.647-0.595-1.427-1.189-0.833c-0.955,0.956-3.275,2.092-3.896,3.156
			c-0.933,1.601-1.813,3.099-2.499,4.813c-0.541,1.35,0.119,1.112-0.334,0.659c-0.682-0.681-1.409-1.106-1.921-1.939
			C6.188,75.772,5.952,75.262,7.4,72.74c0.56-0.977,1.721-1.855,2.877-1.918c0.553-0.029,0.821-0.848,0.442-1.224
			c-0.253-0.25-0.506-0.5-0.759-0.75c-0.271-0.269-0.75-0.395-1.058-0.087c-1.299,1.301-3.091,2.653-4.147,4.162
			c-0.295,0.42,0.279,1.924-0.837,1.604c-1.418-0.404-2.323-0.454-2.323-1.323c0-3.173-0.791-12.749,4.77-11.08
			c1.625,0.488,2.489,3.92,3.444,5.512c0.878,1.464,3.412,1.44,4.944,1.44c4.893,0,9.539-0.415,14.356-1.265
			c0.396-0.069,0.688-0.468,0.608-0.868c-0.74-3.707-5.882-4.26-8.893-5.598c-2.076-0.923-5.631-3.546-6.489-5.647
			c-0.273-0.667-1.163-1.171-1.622-1.744c-0.776-0.971-1.001-2.255-1.749-3.19c-1.502-1.877-1.186-4.177-0.956-6.478
			c0.245-2.449,2.833-2.967,4.926-3.199c4.704-0.521,9.465,0.958,13.363,3.743C29.087,45.394,29.947,44.165,29.16,43.602z"/>
	</g>
</g>
<g>
	<polygon fill="#009900" points="53.093,22.866 48.321,22.364 46.061,23.117 41.54,25.88 39.278,28.141 35.26,31.406 33.251,34.42 
		30.989,38.941 29.985,42.458 28.478,46.978 27.976,50.496 28.729,53.259 30.738,57.026 34.757,62.05 38.524,65.064 47.065,72.347 
		52.34,75.111 55.604,76.869 61.634,78.626 65.401,79.632 69.923,80.636 78.964,81.139 85.747,79.632 88.007,79.129 89.515,77.623 
		91.272,75.111 93.532,72.599 95.04,70.338 96.798,67.074 102.575,59.789 103.58,58.031 104.083,53.761 102.324,49.742 
		100.565,46.978 98.557,44.467 96.296,41.202 93.532,39.193 85.998,35.676 76.453,29.647 63.392,25.126 52.843,22.113 	"/>
	<g>
		<path d="M53.093,21.366c-2.671-0.281-4.499-0.593-7.032,0.251c-2.576,0.858-4.913,3.155-6.782,5.024
			c-1.745,1.745-3.684,2.757-5.063,4.826c-1.412,2.119-2.825,4.484-3.526,6.939c-1.2,4.205-3.105,8.376-2.843,12.847
			c0.278,4.754,4.005,8.665,6.798,12.157c1.18,1.476,3.13,2.515,4.584,3.755c2.584,2.203,5.168,4.406,7.752,6.61
			c3.784,3.227,9.831,4.945,14.484,6.303c5.541,1.615,10.688,2.183,16.432,2.502c3.951,0.22,9.955-1.076,12.277-4.395
			c2.263-3.234,4.641-5.906,6.534-9.423c1.811-3.364,4.996-5.933,6.913-9.285c0.955-1.671,0.973-6.088,0.154-7.959
			c-1.797-4.107-4.318-7.255-6.853-10.916c-2.154-3.111-6.641-4.427-9.905-5.951c-3.676-1.716-7.042-4.279-10.468-6.444
			c-3.434-2.169-8.587-3-12.433-4.331c-3.687-1.276-7.521-2.192-11.272-3.264c-0.127-0.036-0.14,2.646-0.04,2.946
			c0.083,0.251,0.167,0.502,0.25,0.753c-0.157-0.473,0.354-2.067,0.08-2.893c-0.083-0.251-0.167-0.502-0.25-0.753
			c-0.014,0.982-0.027,1.964-0.04,2.946c4.965,1.418,9.913,2.793,14.791,4.482c2.911,1.008,5.822,2.015,8.733,3.023
			c2.628,0.91,5.291,3.317,7.64,4.8c3.962,2.502,10.081,3.598,12.835,7.577c1.572,2.271,3.341,4.393,4.823,6.721
			c0.695,1.092,1.166,2.222,1.686,3.41c0.717,1.639,0.276,2.04,0.598-0.688c-0.125,1.063-0.25,2.124-0.375,3.187
			c-0.273,2.321-3.13,4.853-4.502,6.583c-1.631,2.056-2.825,3.871-4.072,6.186c-1.037,1.926-2.719,3.274-3.95,5.033
			c-1.846,2.638-2.793,3.649-5.894,4.338c-10.398,2.311-22.447,0.931-31.97-4.196c-2.486-1.339-5.162-2.402-7.317-4.239
			c-2.637-2.249-5.227-4.569-7.934-6.734c-2.836-2.269-4.806-4.577-7.085-7.427c-0.875-1.094-1.422-2.617-2.081-3.854
			c-0.372-0.697-0.468-1.714-0.676-2.477c0.852,3.121,0.024,1.99,0.33-0.151c0.718-5.033,3.391-13.479,7.464-16.789
			c2.653-2.156,5.004-4.62,7.913-6.397c3.415-2.087,5.338-2.049,9.292-1.633C53.217,24.379,53.415,21.399,53.093,21.366z"/>
	</g>
</g>
<g>
	<linearGradient id="SVGID_2_" gradientUnits="userSpaceOnUse" x1="101.0684" y1="74.8589" x2="166.6572" y2="74.8589">
		<stop  offset="0" style="stop-color:#009900"/>
		<stop  offset="0.6907" style="stop-color:#178000"/>
		<stop  offset="1" style="stop-color:#237300"/>
	</linearGradient>
	<polygon fill="url(#SVGID_2_)" points="102.324,49.742 106.595,46.476 109.859,44.969 111.116,44.467 113.125,43.714 
		116.642,43.211 118.651,42.96 121.162,42.207 124.177,41.956 128.195,41.956 131.21,41.956 135.229,42.207 137.237,42.458 
		140.001,43.714 142.011,45.472 143.769,46.978 145.276,48.486 145.918,49.334 146.763,50.573 146.388,52.375 146.077,54.103 
		145.899,55.654 144.773,58.282 143.769,59.789 143.015,61.547 141.005,64.058 137.991,67.324 136.735,68.58 134.475,70.338 
		131.964,72.347 129.954,73.353 126.688,75.111 124.679,76.116 123.925,76.869 122.921,77.875 125.181,78.878 127.442,80.134 
		129.954,80.636 132.466,81.139 137.991,81.39 141.005,81.641 142.764,81.892 145.276,82.144 148.038,82.395 151.053,81.139 
		153.062,80.386 156.579,80.386 158.839,80.888 161.351,82.395 162.858,83.651 164.616,85.158 165.872,86.666 166.657,88.737 
		165.872,90.684 165.621,92.442 164.867,92.945 164.114,93.949 162.355,94.954 159.844,95.457 157.332,95.205 155.322,95.205 
		154.569,97.214 153.564,99.224 150.802,101.484 145.526,101.987 142.764,101.736 141.257,99.726 142.759,102.741 141.005,105.252 
		139.499,106.257 137.489,107.763 135.731,107.763 132.968,107.513 130.456,106.257 128.698,104.248 126.688,102.49 125.181,98.972 
		123.423,96.962 120.409,93.447 118.651,91.437 116.893,90.181 109.106,85.41 106.343,84.154 103.063,83.4 105.338,81.646 
		109.608,79.892 112.12,79.39 115.888,79.386 120.911,78.376 118.399,78.376 115.386,79.129 111.366,79.632 106.343,79.632 
		104.083,78.125 102.324,72.599 101.319,66.571 101.068,53.259 	"/>
	<g>
		<path d="M102.324,51.242c5.707-4.363,11.929-6.96,19.151-7.562c6.824-0.568,15.109-1.454,20.535,3.292
			c1.24,1.085,2.586,2.115,3.587,3.438c1.866,2.469,1.181-1.572,0.812,0.202c-0.167,0.803-0.345,1.616-0.438,2.431
			c-0.416,3.63-3.15,7.549-5.563,10.163c-2.643,2.863-5.405,5.211-8.443,7.642c-2.815,2.252-6.421,2.9-9.043,5.527
			c-0.265,0.266-0.338,2.85,0,3c2.56,1.137,4.663,2.287,7.426,2.84c2.652,0.531,5.268,0.478,7.958,0.702
			c2.655,0.221,5.29,0.575,7.943,0.815c2.695,0.245,4.547-1.846,7.074-1.846c5.496,0,11.076,2.443,13.173,7.974
			c-0.77-2.029,0.33-3.084-0.54-0.927c-0.142,0.351-0.168,0.521-0.224,0.911c-0.192,1.345-1.329,2.439-2.497,3.106
			c-2.474,1.414-5.199,0.754-7.912,0.754c-0.014,0.018-0.026,0.036-0.04,0.054c-0.915,2.442-2.3,6.018-5.305,6.304
			c-1.524,0.146-3.21,0.537-4.738,0.398c-2.376-0.216-2.539-0.31-3.982-2.234c0.327,0.437-0.389,2.245-0.04,2.946
			c0.464,0.931,0.928,1.861,1.391,2.791c-1.014-2.034,0.539-3.281-1.025-1.041c-0.504,0.722-0.959,1.085-1.692,1.574
			c-2.328,1.554-3.144,1.858-5.949,1.604c-2.248-0.203-3.646-1.528-5.06-3.145c-0.643-0.734-1.876-1.269-2.265-2.174
			c-0.415-0.969-0.742-2.518-1.436-3.311c-2.709-3.098-5.174-6.883-8.719-9.056c-4.447-2.725-8.294-5.343-13.398-6.517c0,1,0,2,0,3
			c5.477-4.223,11.388-3.725,17.848-5.023c0.313-0.063,0.165-3,0-3c-3.327,0-6.428,1.256-9.761,1.256
			c-1.814,0-4.06,0.499-5.603-0.531c-2.051-1.368-2.228-3.447-2.961-5.751c-0.538-1.688-0.683-3.528-0.974-5.272
			c-0.258-1.549-0.151-0.55-0.155-0.778c-0.021-1.126-0.042-2.252-0.064-3.378c-0.051-2.726-0.103-5.451-0.154-8.177
			c-0.029-1.522,0.563-1.48-0.038,0.2c0.388-1.085,0.775-2.171,1.163-3.257c0.291-0.815-0.244-2.435-0.08-2.893
			c-2.685,7.521-1.553,16.498-0.253,24.297c0.491,2.945,1.221,8.54,5.097,8.54c4.694,0,9.173-1.256,13.783-1.256c0-1,0-2,0-3
			c-6.46,1.299-12.371,0.801-17.848,5.023c-0.276,0.213-0.274,2.937,0,3c4.932,1.134,8.61,3.583,12.91,6.218
			c3.534,2.166,5.886,5.557,8.589,8.647c1.51,1.727,1.653,3.811,3.429,5.363c1.692,1.48,2.654,2.724,4.716,3.754
			c4.223,2.112,7.913-1.576,10.092-4.695c0.326-0.467,0.249-2.393,0-2.893c-0.501-1.005-1.002-2.01-1.502-3.015
			c-0.014,0.982-0.026,1.964-0.04,2.946c1.513,2.018,1.773,2.034,4.27,2.261c1.166,0.105,4.584,0.063,5.48-0.67
			c1.615-1.322,2.531-2.014,3.445-3.842c1.163-2.325,1.499-2.409,4.136-2.145c5.921,0.594,11.163-7.009,6.959-12.056
			c-2.371-2.846-5.35-5.085-8.968-5.889c-3.97-0.882-7.116,2.139-11.016,1.784c-3.901-0.354-7.747-0.788-11.665-0.966
			c-4.131-0.188-7.288-1.691-10.978-3.33c0,1,0,2,0,3c2.69-2.695,6.402-3.415,9.304-5.736c3.234-2.588,6.379-5.08,8.989-8.341
			c3.663-4.577,8.146-12.911,4.063-18.312c-5.398-7.141-13.052-6.53-21.1-6.53c-2.105,0-3.82,0.792-5.839,1.044
			c-1.769,0.221-3.868,0.211-5.526,0.832c-4.008,1.503-7.086,3.31-10.487,5.91C101.723,48.702,102.641,51,102.324,51.242z"/>
	</g>
</g>
<g>
	<g>
		<path fill="none" d="M97.301,51.751l-2.214-1.865l-2.559-2.154l1.758,2.764l-1.004,2.764l-1.256,2.26
			c0,0-11.053,7.535-19.09,4.019c-5.023-0.251-23.109-9.544-25.369-8.54c0,0-9.293-0.754-17.08,3.768"/>
		<path d="M96.368,50.227c-1.592-1.34-3.182-2.68-4.773-4.02c-0.638-0.537-0.883-0.407-0.406,0.341
			c1.473,2.314,1.701,2.607,0.29,5.148c-1.167,2.102-2.054,2.593-4.223,3.73c-6.993,3.668-13.61,3.376-20.86,0.869
			c-6.277-2.171-12.244-5.496-18.698-7.125c-5.891-1.488-13.753,0.975-18.816,3.679c-0.212,0.112,2.456,4.234,3.214,3.83
			c6.254-3.339,14.479-5.204,21.361-2.824c4.053,1.401,7.982,3.181,11.963,4.773c3.337,1.336,6.839,2.028,10.158,3.248
			c5.623,2.067,16.152-1.017,19.115-6.351c1.43-2.572,1.26-3.336-0.205-5.639c-0.527-0.828-1.137-0.725-0.363-0.072
			c0.569,0.479,1.138,0.957,1.706,1.436c0.802,0.676,1.603,1.35,2.403,2.024C99.808,54.601,96.915,50.687,96.368,50.227
			L96.368,50.227z"/>
	</g>
</g>
<g>
	<linearGradient id="SVGID_3_" gradientUnits="userSpaceOnUse" x1="82.749" y1="44.6665" x2="68.2665" y2="9.178">
		<stop  offset="0" style="stop-color:#009900"/>
		<stop  offset="0.5462" style="stop-color:#029700"/>
		<stop  offset="0.743" style="stop-color:#089000"/>
		<stop  offset="0.8827" style="stop-color:#138500"/>
		<stop  offset="0.9954" style="stop-color:#227400"/>
		<stop  offset="1" style="stop-color:#237300"/>
	</linearGradient>
	<path fill="url(#SVGID_3_)" d="M62.502,27.2l0.45,4.564l0.541,2.502l0.05,0.233l0.759,3.51c0,0,2.923,13.69,13.717,12.49
		C88.813,49.298,92.41,39.93,92.41,39.93s3.598-9.127-2.024-22.818c-2.474-4.083-5.172-7.927-5.172-7.927s-1.349-6.005-9.669-8.407
		c-9.894,0-16.189,14.171-16.189,14.171s-3.823,5.765-2.699,11.53c1.125,5.765,6.521,7.926,6.521,7.926l0,0L62.502,27.2z"/>
	<g>
		<path d="M61.764,27.331c0.891,9.025,2.854,22.405,13.914,23.949c6.754,0.942,13.827-4.104,16.836-9.844
			c2.31-4.406,1.992-9.994,1.356-14.752c-0.785-5.876-3.201-10.687-6.425-15.552c-1.181-1.781-1.62-3.272-2.904-5.076
			c-1.916-2.692-5.493-5.702-8.925-6.025c-3.491-0.329-6.926,1.946-9.425,4.094c-7.962,6.843-16.812,25.172-3.273,30.984
			c0.563,0.241,1.048-0.305,0.999-0.834c-0.225-2.402-0.45-4.804-0.675-7.206C63.151,26.106,61.674,26.375,61.764,27.331
			c0.225,2.402,0.45,4.804,0.675,7.206c0.333-0.278,0.666-0.556,0.999-0.834c-13.246-5.685-2.066-24.079,5.436-29.823
			c6.293-4.818,12.763-0.483,15.662,5.628c1.309,2.759,3.575,5.336,5.172,7.927c2.561,4.155,3.141,10.826,3.072,15.62
			c-0.147,10.312-11.618,22.128-21.982,14.72c-5.981-4.276-6.9-14.033-7.558-20.704C63.146,26.106,61.669,26.374,61.764,27.331z"/>
	</g>
</g>
<g>
	<path fill="#FFFFFF" d="M83.909,11.544l-3.188,0.214c0,0-2.79,0.214-5.778,4.279c-2.989,4.066-7.771,24.394,2.391,28.46
		c0,0,9.963,2.995,13.947-10.699c3.188-10.699-3.984-19.687-3.984-19.687L83.909,11.544z"/>
	<g>
		<path d="M83.844,11.175c-7.939,0.534-10.781,6.166-12.306,13.434c-1.194,5.69-2.025,18.543,5.931,20.307
			c8.099,1.795,12.848-5.786,14.567-12.578c2.047-8.088-1.598-16.315-7.911-21.101c-0.386-0.293-0.815,0.323-0.431,0.614
			c5.575,4.226,8.083,10.042,8.008,17.237c-0.077,7.44-5.497,16.708-13.959,15.125c-7.703-1.44-6.444-14.208-5.458-19.534
			c1.261-6.812,4.288-12.268,11.689-12.766C84.456,11.881,84.321,11.143,83.844,11.175z"/>
	</g>
</g>
<polygon fill="#FFFFFF" stroke="#000000" stroke-width="0.25" points="30.236,39.444 27.976,37.937 25.716,36.429 23.957,33.917 
	23.204,31.406 22.45,27.638 22.45,23.391 23.454,20.605 24.71,19.601 27.223,18.847 30.487,20.103 31.743,21.108 33.502,24.122 
	34.507,25.629 34.757,28.392 35.763,29.647 34.507,32.662 33.251,34.42 32.246,36.178 "/>
<path d="M84.741,21.596l-2.512-1.004l-3.014,17.331l1.256-0.251C80.472,37.671,85.244,26.62,84.741,21.596z"/>
<polygon stroke="#080808" stroke-width="0.25" points="25.593,24.368 25.593,25.74 25.896,27.569 26.354,30.77 26.504,31.684 
	26.962,32.599 27.569,33.285 28.634,33.285 29.089,32.371 28.328,30.542 28.025,28.484 27.872,26.883 27.265,25.053 "/>
<g>
	<polygon fill="#009900" points="47.316,21.823 46.813,18.455 45.81,16.05 43.046,13.404 40.534,11.441 37.269,11.72 34.004,12.201 
		32.999,13.163 33.753,15.087 34.757,16.531 35.511,18.455 36.767,21.342 39.028,25.431 40.032,26.633 41.54,25.912 43.549,24.95 
		45.307,23.747 47.316,22.785 	"/>
	<g>
		<path d="M47.392,20.527c-0.575-3.848-1.27-6.22-4.454-8.708c-0.801-0.626-1.603-1.252-2.404-1.878
			c-0.363-0.283-2.369,0.202-2.854,0.243c-1.831,0.156-3.353,0.207-4.682,1.479c-0.415,0.396-0.236,2.445-0.04,2.946
			c0.711,1.813,1.747,3.339,2.456,5.149c0.765,1.952,1.711,3.752,2.723,5.581c0.438,0.792,0.816,1.503,1.393,2.193
			c0.744,0.891,1.18,0.277,2.159-0.192c1.944-0.931,3.681-2.124,5.627-3.056c0.247-0.118,0.15-1.297,0.15-1.5
			c0-0.321,0-0.641,0-0.962c0-1.704-0.3-1.704-0.3,0c0,0.321,0,0.641,0,0.962c0.05-0.5,0.1-1,0.15-1.5
			c-1.661,0.795-3.122,1.856-4.772,2.646c-0.837,0.401-1.675,0.802-2.512,1.203c-0.313,0.15-1.682-2.446-1.815-2.687
			c-1.012-1.829-1.958-3.629-2.723-5.581c-0.709-1.81-1.745-3.335-2.456-5.149c-0.014,0.982-0.027,1.964-0.04,2.946
			c1.296-1.241,2.491-1.181,4.27-1.443c2.377-0.351,3.146-0.372,4.982,1.063c1.075,0.84,3.064,2.125,3.574,3.347
			c0.783,1.875,1.115,3.475,1.416,5.489c0.086,0.579,0.2-0.449,0.205-0.539C47.486,21.902,47.493,21.201,47.392,20.527z"/>
	</g>
</g>
<g>
	<polygon fill="#009900" points="23.957,18.596 22.198,16.586 21.696,14.326 22.198,12.568 23.204,10.809 25.464,9.554 
		28.729,9.554 30.236,10.558 31.743,12.568 33.753,14.577 34.757,16.084 35.511,18.093 37.269,20.103 38.274,22.113 38.524,24.122 
		39.028,25.378 39.278,28.141 36.265,30.401 34.757,28.392 34.507,25.629 33.502,23.117 31.743,21.108 29.483,19.349 27.223,18.847 
		24.71,19.601 	"/>
	<g>
		<path d="M24.529,18.11c-2.061-2.354-2.474-3.788-0.868-6.596c1.279-2.235,5.272-1.445,6.534,0.237
			c1.451,1.935,3.392,3.342,4.261,5.66c0.928,2.473,2.939,3.704,3.291,6.528c0.143,1.146,0.597,2.165,0.705,3.36
			c0.102,1.124,0.452,0.188-0.256,0.718c-0.75,0.563-1.5,1.125-2.25,1.687c0.711-0.534,0.812,0.107-0.087-1.09
			c-0.524-0.698-0.446-1.257-0.526-2.143c-0.113-1.252-0.58-2.24-1.049-3.415c-0.72-1.8-2.906-3.182-4.371-4.321
			c-0.605-0.471-1.894-0.473-2.62-0.635C25.448,17.69,25.613,19.557,24.529,18.11c-0.581-0.774-1.723,0.199-1.145,0.971
			c0.251,0.335,0.502,0.67,0.753,1.005c0.143,0.189,0.469,0.323,0.703,0.253c3.465-1.04,5.123-0.126,7.471,2.556
			c1.15,1.313,1.467,2.969,1.619,4.654c0.132,1.46,0.873,2.152,1.762,3.337c0.256,0.341,0.746,0.32,1.058,0.086
			c1.049-0.787,3.379-1.725,3.241-3.25c-0.153-1.696-0.278-4.414-1.039-5.933c-0.884-1.766-2.471-3.24-3.141-5.024
			c-0.733-1.955-2.039-3.228-3.496-4.684c-0.875-0.874-1.946-3.276-3.515-3.276c-2.669,0-3.614,0.045-5.918,1.325
			c-1.004,0.558-1.83,3.033-1.933,4.124c-0.194,2.063,1.219,3.436,2.436,4.826C24.021,19.808,25.168,18.84,24.529,18.11z"/>
	</g>
</g>
<g>
	<polygon fill="#009900" points="99.562,55.017 97.804,55.268 95.542,56.775 94.035,57.78 93.03,59.287 91.523,61.798 
		91.272,63.808 91.774,65.315 92.277,68.078 93.03,69.585 93.532,70.841 94.538,72.097 97.301,71.092 98.808,70.841 93.532,72.599 
		91.272,75.111 90.268,76.618 88.761,78.626 88.007,79.129 85.747,79.632 83.988,80.636 81.728,81.892 79.216,83.902 76.96,85.912 
		78.462,88.423 79.718,89.679 81.226,89.679 82.732,88.925 81.979,91.186 82.229,92.693 82.481,93.949 83.485,94.703 84.491,95.457 
		85.747,95.958 88.007,95.708 88.51,94.201 89.012,92.693 90.017,90.433 90.519,91.689 91.523,93.698 92.026,94.703 94.035,95.708 
		96.547,95.708 97.552,94.451 98.557,92.945 98.557,90.935 97.804,88.423 96.044,85.66 94.788,83.651 97.301,82.898 102.324,81.892 
		106.595,78.878 108.854,77.121 110.11,73.855 110.612,69.333 109.859,65.315 108.604,62.3 106.595,59.538 104.836,57.026 
		102.827,55.268 	"/>
	<g>
		<path d="M99.562,53.517c-5.146,0.734-8.572,5.651-8.434,10.689c0.061,2.226,0.874,4.846,1.862,6.825
			c0.512,1.025,0.811,1.645,1.548,2.565c-0.025-0.032,3.763-1.172,4.27-1.256c0-1,0-2,0-3c-1.864,0.621-4.524,0.923-5.861,2.409
			c-1.476,1.64-2.797,4.45-4.563,5.628c-1.503,1.003-3.824,1.44-5.526,2.386c-2.195,1.22-4.03,2.983-5.898,4.647
			c-0.369,0.328-0.283,2.54-0.04,2.946c1.611,2.694,2.525,4.712,5.813,3.067c-0.013-0.982-0.026-1.964-0.04-2.946
			c-1.589,4.772-1.023,10.433,5.314,9.729c0.013-0.018,0.026-0.036,0.04-0.054c0.373-1.117,0.683-2.291,1.162-3.367
			c1.132-2.547,1.232-0.728,2.118,1.044c1.244,2.487,4.375,3.435,6.225,1.12c3.443-4.307-0.375-9.989-2.724-13.746
			c-0.014,0.982-0.027,1.964-0.04,2.946c2.24-0.671,4.456-1.142,6.751-1.602c1.872-0.375,3.516-2.084,5.056-3.171
			c3.587-2.531,3.667-5.865,4.124-9.984c0.327-2.946-0.471-7.334-2.224-9.745c-1.222-1.68-2.427-3.368-3.619-5.069
			C103.481,53.587,101.753,53.685,99.562,53.517c-0.152-0.012-0.297,2.978,0,3c4.141,0.318,5.124,1.896,7.514,5.184
			c1.154,1.587,1.854,2.927,2.613,4.747c0.333,0.799,0.393,1.756,0.551,2.6c0.631,3.369,0.476-2.665,0.068,1.005
			c-0.453,4.077-1.771,5.955-5.065,8.279c-3.342,2.358-6.581,2.658-10.456,3.819c-0.326,0.098-0.223,2.654-0.04,2.946
			c0.998,1.596,2.005,3.186,3.016,4.772c0.255,0.4,0.643,3.316,0.643,1.38c0,0.46,0,0.921,0,1.381c0-1.751-0.802,0.254-1.116,0.646
			c-2.982,3.729-6.222-1.756-7.234-4.29c-0.027-0.071-0.053-0.071-0.08,0c-1.16,2.609-1.162,5.131-4.229,5.472
			c-0.896,0.1-3.155-1.633-3.316-2.433c-0.117-0.581-0.214-1.16-0.311-1.744c0.515,3.103,0.085,1.792,0.652,0.09
			c0.116-0.349-0.034-2.949-0.04-2.946c-3.203,1.603-4.092-0.216-5.732-2.96c-0.014,0.982-0.027,1.964-0.04,2.946
			c1.593-1.419,3.249-3.176,5.121-4.216c1.134-0.63,2.265-1.264,3.392-1.906c0.897-0.513,2.042-0.332,2.912-0.911
			c1.621-1.081,2.71-3.569,4.019-5.023c1.695-1.884,4.016-2.218,6.405-3.014c0.408-0.136,0.034-3.006,0-3
			c-2.048,0.341-4.348,2.275-5.366-0.272c-0.749-1.872-1.127-3.698-1.758-5.591c-0.348-1.309-0.436-0.95-0.266,1.077
			c0.063-0.513,0.035-1.127,0.302-1.571c0.682-1.137,1.359-2.265,2.094-3.367c1.115-1.672,3.891-2.835,5.747-3.1
			C99.916,56.466,99.649,53.504,99.562,53.517z"/>
	</g>
</g>
<g>
	<polygon fill="#009900" points="39.53,68.832 38.022,71.594 38.274,74.106 40.032,76.116 43.298,76.869 48.572,79.129 
		54.601,80.636 56.107,81.892 56.61,83.902 56.61,86.414 52.843,87.167 50.331,87.167 47.819,84.656 46.559,84.4 49.325,85.41 
		49.079,88.423 48.075,89.93 46.321,91.186 42.81,90.437 41.549,87.679 38.776,86.674 34.507,88.925 32.748,88.423 29.985,87.669 
		29.734,85.66 30.236,84.405 31.743,83.4 32.999,82.395 32.748,81.39 31.743,79.883 29.985,77.371 27.474,75.613 25.716,73.353 
		25.464,70.589 25.464,67.827 26.972,64.562 28.729,62.552 30.236,60.041 31.492,58.785 41.037,67.576 	"/>
	<g>
		<path d="M39.49,67.385c-2.333,4.274-2.683,9.487,2.961,10.788c2.847,0.656,5.383,2.271,8.243,2.986
			c1.308,0.327,3.239,0.421,4.297,1.302c0.995,0.83,1.195,1.351,1.5,2.573c-0.442-1.769-0.031,0.848-0.031,1.379
			c0.05-0.5,0.1-1,0.15-1.5c-2.025,0.405-3.828,0.754-5.887,0.754c-1.403,0-2.496-2.429-4.165-2.768c-0.004-0.001-0.427,2.845,0,3
			c0.922,0.337,1.844,0.673,2.767,1.01c-0.035-0.854-0.071-1.707-0.106-2.561c-0.247,3.019-1.222,5.694-4.654,4.963
			c-1.949-0.416-2.026-1-2.846-2.792c-0.391-0.854-2.11-1.044-2.943-1.346c-0.529-0.191-3.065,1.616-3.603,1.899
			c-1.092,0.576-2.244-0.101-3.398-0.416c0.008,0.002-1.743-0.521-1.723-0.363c-0.247-1.974,0.57-1.309-0.148,0.486
			c0.525-1.312,2.013-2.021,3.095-2.886c0.459-0.367,0.168-2.432,0.04-2.946c-0.747-2.987-3.155-5.149-5.565-6.836
			c-1.52-1.063-1.728-2.653-1.877-4.297c0.118,1.291,0.018-1.385,0.018-1.702c0,2.092,0.951-1.138,1.286-1.863
			c0.528-1.144,1.734-2.025,2.4-3.136c0.619-1.031,1.561-3.412,2.772-2.296c2.988,2.752,5.977,5.505,8.965,8.257c0-1,0-2,0-3
			c-0.502,0.419-1.004,0.837-1.507,1.256c-0.601,0.501,0.335,2.721,0,3c0.502-0.419,1.004-0.837,1.507-1.256
			c0.333-0.277,0.317-2.708,0-3c-3.182-2.931-6.363-5.86-9.545-8.791c-0.474-0.437-5.643,8.174-6.068,9.096
			c-0.748,1.62-0.353,6.755,0.252,8.419c0.617,1.698,2.674,2.927,4.048,3.889c1.324,0.927,2.848,3.604,3.235,5.153
			c0.014-0.982,0.027-1.964,0.04-2.946c-3.29,2.632-3.645,3.631-3.12,7.835c0.004,0.032,0.015,0.415,0.106,0.439
			c2.12,0.578,3.891,1.588,5.873,0.544c2.726-1.438,4.903-2.224,6.468,1.199c0.995,2.176,3.801,1.913,5.476,0.714
			c1.692-1.212,1.48-3.326,1.63-5.156c0.026-0.316,0.262-2.427-0.106-2.561c-0.922-0.337-1.844-0.673-2.767-1.01c0,1,0,2,0,3
			c1.669,0.339,2.762,2.768,4.165,2.768c2.059,0,3.862-0.349,5.887-0.754c0.21-0.042,0.15-1.361,0.15-1.5
			c0-2.178-0.088-3.871-0.613-5.968c-0.504-2.014-6.098-2.447-7.575-2.816c-2.647-0.662-4.987-2.194-7.693-2.818
			c-0.826-0.19-2.444-1.223-2.538-2.158c-0.24-2.39,0.695-1.397-0.122,0.101c0.45-0.825,0.9-1.65,1.351-2.476
			C39.966,69.553,39.3,67.735,39.49,67.385z"/>
	</g>
</g>
<g>
	<g>
		<polyline fill="none" points="155.322,95.457 154.067,92.693 152.058,91.186 150.802,90.935 146.782,91.186 144.522,91.437 
			142.011,91.437 139.247,91.437 134.978,90.181 132.968,88.171 132.214,86.917 		"/>
		<path d="M155.343,94.733c-2.385-5.247-5.548-4.632-10.82-4.046c-4.729,0.526-9.696-0.176-12.288-4.494
			c0.096,0.16-0.249,1.099-0.04,1.447c2.621,4.366,6.763,4.547,11.443,4.547c2.298,0,4.644-0.345,6.941-0.488
			c2.623-0.164,3.828,2.512,4.723,4.48C155.211,95.978,155.518,95.119,155.343,94.733L155.343,94.733z"/>
	</g>
</g>
<g>
	<g>
		<polyline fill="none" points="141.508,100.228 140.503,97.465 138.745,94.703 135.229,93.196 133.47,93.196 131.712,94.201 
			126.437,94.703 124.428,93.949 		"/>
		<path d="M141.528,99.505c-0.63-1.73-1.222-3.104-2.207-4.652c-0.921-1.446-2.533-1.738-4.093-2.407
			c-1.512-0.647-3.348,0.988-4.884,1.135c-2.357,0.225-3.728,0.44-5.917-0.382c0.058,0.021-0.255,1.404,0,1.5
			c2.03,0.762,3.116,0.648,5.3,0.44c1.683-0.16,3.056-1.193,4.622-1.193c4.272,0,5.886,3.561,7.138,7.006
			C141.405,100.724,141.675,99.912,141.528,99.505L141.528,99.505z"/>
	</g>
</g>
</svg>
